<svg id="CategaryFooter_svg__Layer_1" data-name="Layer 1" xmlns="http://www.w3.org/2000/svg" viewBox="0 0 24 24" width="1em" height="1em" style="height:24px;width:22px"><defs><style>.CategaryFooter_svg__cls-1{fill:none;stroke:#000;stroke-linecap:round;stroke-linejoin:round;stroke-width:2px}</style></defs><path class="CategaryFooter_svg__cls-1" d="M3 7a4 4 0 0 1 4-4h1a2 2 0 0 1 2 2v5H5a2 2 0 0 1-2-2ZM21 17a4 4 0 0 1-4 4h-1a2 2 0 0 1-2-2v-5h5a2 2 0 0 1 2 2ZM7 21a4 4 0 0 1-4-4v-1a2 2 0 0 1 2-2h5v5a2 2 0 0 1-2 2ZM17 3a4 4 0 0 1 4 4v1a2 2 0 0 1-2 2h-5V5a2 2 0 0 1 2-2Z"></path></svg>