<svg data-name="Layer 1" xmlns="http://www.w3.org/2000/svg" viewBox="0 0 24 24" width="1em" height="1em" style="height:24px;width:22px"><path d="m20 8-6-5.26a3 3 0 0 0-4 0L4 8a2.88 2.88 0 0 0-.74 1A2.94 2.94 0 0 0 3 10.26V19a3 3 0 0 0 3 3h12a3 3 0 0 0 3-3v-8.75A3.09 3.09 0 0 0 20.74 9 2.88 2.88 0 0 0 20 8Zm-6 12h-4v-5a1 1 0 0 1 1-1h2a1 1 0 0 1 1 1Zm5-1a1 1 0 0 1-1 1h-2v-5a3 3 0 0 0-3-3h-2a3 3 0 0 0-3 3v5H6a1 1 0 0 1-1-1v-8.75a1 1 0 0 1 .09-.41.94.94 0 0 1 .25-.34l6-5.25a1 1 0 0 1 1.32 0l6 5.25a.94.94 0 0 1 .25.34 1 1 0 0 1 .09.41Z" style="fill:#000"></path></svg>