<svg width="1em" height="1em" viewBox="0 0 21 23" fill="none" xmlns="http://www.w3.org/2000/svg" style="height:24px;width:22px"><g filter="url(#Offer_svg__a)"><path fill-rule="evenodd" clip-rule="evenodd" d="M11.212.704a.747.747 0 0 0-1.04 0l-1.82 1.76a1.148 1.148 0 0 1-.958.312L4.888 2.42a.748.748 0 0 0-.841.611L3.61 5.525c-.062.349-.28.65-.593.816L.781 7.527a.748.748 0 0 0-.321.989l1.112 2.274c.155.318.155.69 0 1.008L.46 14.072a.748.748 0 0 0 .321.989l2.236 1.186c.313.166.531.467.593.816l.437 2.493c.07.397.442.667.841.61l2.506-.354c.35-.05.704.066.959.312l1.82 1.76c.289.28.749.28 1.039 0l1.819-1.76c.254-.246.608-.361.959-.312l2.506.355c.4.056.771-.214.84-.611l.438-2.494c.061-.348.28-.649.593-.815l2.236-1.186a.748.748 0 0 0 .321-.989l-1.112-2.274a1.148 1.148 0 0 1 0-1.008l1.112-2.274a.748.748 0 0 0-.321-.989l-2.236-1.186a1.148 1.148 0 0 1-.593-.816l-.437-2.493a.747.747 0 0 0-.841-.61l-2.506.354c-.35.05-.705-.066-.959-.312l-1.82-1.76ZM9.554 8.451a1.706 1.706 0 1 1-3.412 0 1.706 1.706 0 0 1 3.412 0Zm5.218.102a.947.947 0 1 0-1.34-1.34L6.61 14.035a.948.948 0 0 0 1.34 1.34l6.822-6.822Zm-1.238 7.29a1.706 1.706 0 1 0 0-3.412 1.706 1.706 0 0 0 0 3.411Z" fill="url(#Offer_svg__b)"></path></g><defs><linearGradient id="Offer_svg__b" x1="0.384" y1="0.494" x2="20.713" y2="13.441" gradientUnits="userSpaceOnUse"><stop offset="0.016" stop-color="#FFE8F1"></stop><stop offset="0.299" stop-color="#FE84B4"></stop><stop offset="0.541" stop-color="#E31C69"></stop><stop offset="0.791" stop-color="#CD135A"></stop><stop offset="1" stop-color="#AD164F"></stop></linearGradient><filter id="Offer_svg__a" x="0.384" y="0.494" width="20.616" height="22.6" filterUnits="userSpaceOnUse" color-interpolation-filters="sRGB"><feFlood flood-opacity="0" result="BackgroundImageFix"></feFlood><feBlend in="SourceGraphic" in2="BackgroundImageFix" result="shape"></feBlend><feColorMatrix in="SourceAlpha" values="0 0 0 0 0 0 0 0 0 0 0 0 0 0 0 0 0 0 127 0" result="hardAlpha"></feColorMatrix><feOffset dy="1"></feOffset><feGaussianBlur stdDeviation="1.5"></feGaussianBlur><feComposite in2="hardAlpha" operator="arithmetic" k2="-1" k3="1"></feComposite><feColorMatrix values="0 0 0 0 1 0 0 0 0 0.879167 0 0 0 0 0.926217 0 0 0 1 0"></feColorMatrix><feBlend in2="shape" result="effect1_innerShadow_6043_175345"></feBlend></filter></defs></svg>