<svg width="1em" height="1em" viewBox="0 0 23 23" fill="none" xmlns="http://www.w3.org/2000/svg" style="font-size:22px"><path d="m22.124 20.625-4.045-4.048a9.963 9.963 0 0 0 2.125-7.007 9.934 9.934 0 0 0-3.232-6.562A9.761 9.761 0 0 0 10.155.484a9.771 9.771 0 0 0-6.67 2.896 9.945 9.945 0 0 0-2.871 6.73 9.954 9.954 0 0 0 2.501 6.88 9.782 9.782 0 0 0 6.504 3.26 9.753 9.753 0 0 0 6.944-2.144l4.013 4.049a1.09 1.09 0 0 0 .774.325 1.081 1.081 0 0 0 1.08-1.09c0-.285-.11-.56-.306-.765Zm-11.678-2.519a7.584 7.584 0 0 1-4.24-1.298 7.687 7.687 0 0 1-2.811-3.456 7.766 7.766 0 0 1-.435-4.45A7.723 7.723 0 0 1 5.05 4.96a7.612 7.612 0 0 1 3.907-2.108 7.57 7.57 0 0 1 4.41.439 7.648 7.648 0 0 1 3.425 2.836 7.75 7.75 0 0 1 1.287 4.279 7.736 7.736 0 0 1-2.236 5.445 7.598 7.598 0 0 1-5.397 2.256Z" fill="#000"></path></svg>